<svg width="15" height="4" viewBox="0 0 15 4" fill="none" xmlns="http://www.w3.org/2000/svg">
<path fill-rule="evenodd" clip-rule="evenodd" d="M2.25 0.222229C1.2835 0.222229 0.5 1.01817 0.5 2.00001C0.5 2.98185 1.2835 3.77778 2.25 3.77778C3.2165 3.77778 4 2.98185 4 2.00001C4 1.01817 3.2165 0.222229 2.25 0.222229ZM7.5 0.222229C6.5335 0.222229 5.75 1.01817 5.75 2.00001C5.75 2.98185 6.5335 3.77778 7.5 3.77778C8.4665 3.77778 9.25 2.98185 9.25 2.00001C9.25 1.01817 8.4665 0.222229 7.5 0.222229ZM11 2.00001C11 1.01817 11.7835 0.222229 12.75 0.222229C13.7165 0.222229 14.5 1.01817 14.5 2.00001C14.5 2.98185 13.7165 3.77778 12.75 3.77778C11.7835 3.77778 11 2.98185 11 2.00001Z" fill="white"/>
</svg>
