<svg width="31" height="30" viewBox="0 0 31 30" fill="none" xmlns="http://www.w3.org/2000/svg">
<path fill-rule="evenodd" clip-rule="evenodd" d="M10.25 13.2222C9.2835 13.2222 8.5 14.0182 8.5 15C8.5 15.9818 9.2835 16.7778 10.25 16.7778C11.2165 16.7778 12 15.9818 12 15C12 14.0182 11.2165 13.2222 10.25 13.2222ZM15.5 13.2222C14.5335 13.2222 13.75 14.0182 13.75 15C13.75 15.9818 14.5335 16.7778 15.5 16.7778C16.4665 16.7778 17.25 15.9818 17.25 15C17.25 14.0182 16.4665 13.2222 15.5 13.2222ZM19 15C19 14.0182 19.7835 13.2222 20.75 13.2222C21.7165 13.2222 22.5 14.0182 22.5 15C22.5 15.9818 21.7165 16.7778 20.75 16.7778C19.7835 16.7778 19 15.9818 19 15Z" fill="white"/>
</svg>
