<svg width="40" height="27" viewBox="0 0 40 27" fill="none" xmlns="http://www.w3.org/2000/svg">
<path d="M7.19919 13.441L15.7741 4.61907C16.7032 3.66322 16.7032 2.1117 15.7741 1.15585C14.8451 0.200003 13.337 0.200003 12.4079 1.15585L2.05332 11.8087C1.17585 12.7114 1.17585 14.1729 2.05332 15.0734L12.4079 25.7262C13.337 26.6821 14.8451 26.6821 15.7741 25.7262C16.7032 24.7704 16.7032 23.2188 15.7741 22.263L7.19919 13.441Z" fill="white"/>
<path d="M32.6197 13.441L24.0447 4.61907C23.1156 3.66322 23.1156 2.1117 24.0447 1.15585C24.9738 0.200003 26.4819 0.200003 27.411 1.15585L37.7655 11.8087C38.643 12.7114 38.643 14.1729 37.7655 15.0734L27.411 25.7262C26.4819 26.6821 24.9738 26.6821 24.0447 25.7262C23.1156 24.7704 23.1156 23.2188 24.0447 22.263L32.6197 13.441Z" fill="white"/>
</svg>
