<svg height="90pt" preserveAspectRatio="xMidYMid meet" viewBox="0 0 90 90" width="90pt" xmlns="http://www.w3.org/2000/svg"><g transform="matrix(.1 0 0 -.1 0 90)"><path d="m330 765-105-105h45c42 0 49 4 112 67l68 67 68-67c63-63 70-67 112-67h45l-105 105c-58 58-112 105-120 105s-62-47-120-105z" fill="#2192E9"></path><path d="m67 593c-4-3-7-29-7-56 0-39 4-50 18-54 15-4 22-29 42-150 17-106 28-151 42-165 17-17 39-18 288-18s271 1 288 18c14 14 25 59 42 165 20 122 27 146 42 151 16 4 19 13 16 58l-3 53-381 3c-209 1-383-1-387-5zm288-233v-115h-25c-25 0-25 0-28 104-3 121 0 134 30 129 22-3 23-6 23-118zm120 0v-115h-25c-25 0-25 0-28 104-3 121 0 134 30 129 22-3 23-6 23-118zm120 0v-115h-25c-25 0-25 0-28 104-3 121 0 134 30 129 22-3 23-6 23-118z" fill="#2192E9"></path></g></svg>