<svg width="13" height="13" viewBox="0 0 13 13" fill="none" xmlns="http://www.w3.org/2000/svg">
<path d="M0.93105 0.00040553C0.553974 0.000504588 0.214556 0.229132 0.0726651 0.5786C-0.0692254 0.928068 0.0147069 1.32869 0.284929 1.59176L5.18966 6.498L0.284929 11.4042C0.0428526 11.6367 -0.0546611 11.982 0.0299951 12.3068C0.114651 12.6316 0.368249 12.8853 0.692984 12.97C1.01772 13.0547 1.36285 12.9571 1.59527 12.715L6.5 7.80874L11.4047 12.715C11.6371 12.9571 11.9823 13.0547 12.307 12.97C12.6318 12.8853 12.8854 12.6316 12.97 12.3068C13.0547 11.982 12.9571 11.6367 12.7151 11.4042L7.81034 6.498L12.7151 1.59176C12.9891 1.32528 13.0715 0.917821 12.9226 0.565728C12.7736 0.213635 12.4238 -0.0108645 12.0418 0.00040553C11.8011 0.00758106 11.5726 0.108227 11.4047 0.281021L6.5 5.18726L1.59527 0.281021C1.42081 0.101628 1.18125 0.000420119 0.93105 0.00040553Z" fill="white"/>
</svg>
