<svg width="16" height="17" viewBox="0 0 16 17" fill="none" xmlns="http://www.w3.org/2000/svg">
<path fill-rule="evenodd" clip-rule="evenodd" d="M4.15236 2.1C4.4833 1.171 5.36247 0.5 6.40228 0.5C7.72359 0.5 8.79886 1.5768 8.79886 2.9C8.79886 4.2232 7.72359 5.3 6.40228 5.3C5.36247 5.3 4.4833 4.629 4.15236 3.7H0.81024C0.522142 3.70408 0.254167 3.5525 0.108929 3.3033C-0.0363096 3.0541 -0.0363096 2.7459 0.108929 2.4967C0.254167 2.2475 0.522142 2.09592 0.81024 2.1H4.15236ZM10.4941 2.4967C10.6394 2.2475 10.9074 2.09592 11.1954 2.1H15.1898C15.4779 2.09592 15.7458 2.2475 15.8911 2.4967C16.0363 2.7459 16.0363 3.0541 15.8911 3.3033C15.7458 3.5525 15.4779 3.70408 15.1898 3.7H11.1954C10.9074 3.70408 10.6394 3.5525 10.4941 3.3033C10.3489 3.0541 10.3489 2.7459 10.4941 2.4967ZM10.3966 6.1C9.35678 6.1 8.47761 6.771 8.14667 7.7H0.81024C0.522142 7.69592 0.254167 7.8475 0.108929 8.0967C-0.0363096 8.3459 -0.0363096 8.6541 0.108929 8.9033C0.254167 9.1525 0.522142 9.30408 0.81024 9.3H8.14667C8.47761 10.229 9.35678 10.9 10.3966 10.9C11.7179 10.9 12.7932 9.8232 12.7932 8.5C12.7932 7.1768 11.7179 6.1 10.3966 6.1ZM14.4884 8.0967C14.6337 7.8475 14.9017 7.69592 15.1898 7.7C15.4779 7.69592 15.7458 7.8475 15.8911 8.0967C16.0363 8.3459 16.0363 8.6541 15.8911 8.9033C15.7458 9.1525 15.4779 9.30408 15.1898 9.3C14.9017 9.30408 14.6337 9.1525 14.4884 8.9033C14.3432 8.6541 14.3432 8.3459 14.4884 8.0967ZM4.00569 11.7C2.96588 11.7 2.08671 12.371 1.75577 13.3H0.81024C0.522142 13.2959 0.254167 13.4475 0.108929 13.6967C-0.0363096 13.9459 -0.0363096 14.2541 0.108929 14.5033C0.254167 14.7525 0.522142 14.9041 0.81024 14.9H1.75577C2.08671 15.829 2.96588 16.5 4.00569 16.5C5.32701 16.5 6.40228 15.4232 6.40228 14.1C6.40228 12.7768 5.32701 11.7 4.00569 11.7ZM8.09755 13.6967C8.24279 13.4475 8.51076 13.2959 8.79886 13.3H15.1898C15.4779 13.2959 15.7458 13.4475 15.8911 13.6967C16.0363 13.9459 16.0363 14.2541 15.8911 14.5033C15.7458 14.7525 15.4779 14.9041 15.1898 14.9H8.79886C8.51076 14.9041 8.24279 14.7525 8.09755 14.5033C7.95231 14.2541 7.95231 13.9459 8.09755 13.6967Z" fill="white"/>
</svg>
