<svg width="14" height="28" viewBox="0 0 14 28" fill="none" xmlns="http://www.w3.org/2000/svg">
<path d="M5.09091 0C2.2943 0 0 2.2943 0 5.09091V21C0 24.8507 3.14927 28 7 28C10.8507 28 14 24.8507 14 21V6.36364H11.4545V21C11.4545 23.4747 9.47472 25.4545 7 25.4545C4.52528 25.4545 2.54545 23.4747 2.54545 21V5.09091C2.54545 3.6697 3.6697 2.54545 5.09091 2.54545C6.51212 2.54545 7.63636 3.6697 7.63636 5.09091V18.4545C7.63636 18.8197 7.36519 19.0909 7 19.0909C6.63481 19.0909 6.36364 18.8197 6.36364 18.4545V6.36364H3.81818V18.4545C3.81818 20.197 5.25756 21.6364 7 21.6364C8.74244 21.6364 10.1818 20.197 10.1818 18.4545V5.09091C10.1818 2.2943 7.88752 0 5.09091 0Z" fill="#FF2322"/>
</svg>
