<svg width="17" height="15" viewBox="0 0 17 15" fill="none" xmlns="http://www.w3.org/2000/svg">
<path fill-rule="evenodd" clip-rule="evenodd" d="M8.48246 0.750723C8.48663 0.750374 8.4908 0.750025 8.495 0.750003H8.50086C11.2897 0.750003 14.078 1.715 16.305 3.647C16.5013 3.81728 16.6264 4.0329 16.6932 4.26295C16.7019 4.28396 16.7076 4.30367 16.7137 4.32484C16.8195 4.76997 16.6937 5.26268 16.3401 5.60999L15.4904 6.4447C14.9894 6.93691 14.1981 6.98077 13.6431 6.55119L12.263 5.47471C12.1719 5.40389 12.0946 5.32248 12.0257 5.23438L11.9847 5.21279C11.7611 5.09711 11.6235 4.86962 11.6228 4.6213L11.6155 2.58923C10.6025 2.27719 9.55184 2.11792 8.50086 2.11863C7.44568 2.11792 6.39189 2.279 5.37452 2.59355L5.36719 4.6213C5.36569 4.86962 5.22886 5.09711 5.00534 5.21279C5.00187 5.21458 4.99774 5.21692 4.9936 5.21927L4.99358 5.21928C4.98949 5.2216 4.98539 5.22393 4.9819 5.22574C4.91164 5.3171 4.83243 5.40147 4.7387 5.47471L3.35866 6.55119C2.8036 6.98077 2.01234 6.93691 1.51128 6.4447L0.663038 5.60999C0.374642 5.32669 0.238276 4.9462 0.2543 4.57381C0.239559 4.46036 0.263008 4.34286 0.320225 4.22698C0.389813 4.01053 0.51087 3.80842 0.696734 3.647C2.91554 1.72212 5.69228 0.75852 8.47009 0.751442C8.47423 0.751412 8.47834 0.751068 8.48246 0.750723ZM6.24474 6.64474V5.17105H7.74491V6.64474H9.24508V5.17105H10.7453V6.64474L13.9317 9.14885C14.288 9.42885 14.4957 9.85217 14.4957 10.3002V13.2763H15.2458V14.75H1.74422V13.2763H2.4943V10.3002C2.4943 9.85217 2.70204 9.42811 3.05833 9.14885L6.24474 6.64474ZM6.24474 8.85526C6.65878 8.85526 6.99482 9.18537 6.99482 9.59211C6.99482 9.99884 6.65878 10.3289 6.24474 10.3289C5.83069 10.3289 5.49465 9.99884 5.49465 9.59211C5.49465 9.18537 5.83069 8.85526 6.24474 8.85526ZM9.24508 9.59211C9.24508 9.18537 8.90904 8.85526 8.495 8.85526C8.08095 8.85526 7.74491 9.18537 7.74491 9.59211C7.74491 9.99884 8.08095 10.3289 8.495 10.3289C8.90904 10.3289 9.24508 9.99884 9.24508 9.59211ZM10.7453 8.85526C11.1593 8.85526 11.4953 9.18537 11.4953 9.59211C11.4953 9.99884 11.1593 10.3289 10.7453 10.3289C10.3312 10.3289 9.99517 9.99884 9.99517 9.59211C9.99517 9.18537 10.3312 8.85526 10.7453 8.85526ZM6.99482 11.8026C6.99482 11.3959 6.65878 11.0658 6.24474 11.0658C5.83069 11.0658 5.49465 11.3959 5.49465 11.8026C5.49465 12.2094 5.83069 12.5395 6.24474 12.5395C6.65878 12.5395 6.99482 12.2094 6.99482 11.8026ZM8.495 11.0658C8.90904 11.0658 9.24508 11.3959 9.24508 11.8026C9.24508 12.2094 8.90904 12.5395 8.495 12.5395C8.08095 12.5395 7.74491 12.2094 7.74491 11.8026C7.74491 11.3959 8.08095 11.0658 8.495 11.0658ZM11.4953 11.8026C11.4953 11.3959 11.1593 11.0658 10.7453 11.0658C10.3312 11.0658 9.99517 11.3959 9.99517 11.8026C9.99517 12.2094 10.3312 12.5395 10.7453 12.5395C11.1593 12.5395 11.4953 12.2094 11.4953 11.8026Z" fill="white"/>
</svg>
