<svg width="21" height="21" viewBox="0 0 21 21" fill="none" xmlns="http://www.w3.org/2000/svg">
<path fill-rule="evenodd" clip-rule="evenodd" d="M0 7.35002C0 3.30315 3.30315 0 7.35002 0C11.3969 0 14.7 3.30315 14.7 7.35002C14.7 9.18543 14.0155 10.8623 12.8954 12.153L13.3424 12.6H14.7L20.5653 18.4653C21.1449 19.0449 21.1449 19.9857 20.5653 20.5653C19.9857 21.1449 19.0449 21.1449 18.4653 20.5653L12.6 14.7V13.3424L12.153 12.8954C10.8623 14.0155 9.18543 14.7 7.35002 14.7C3.30315 14.7 0 11.3969 0 7.35002ZM12.6 7.35002C12.6 4.43808 10.262 2.10001 7.35002 2.10001C4.43808 2.10001 2.10001 4.43808 2.10001 7.35002C2.10001 10.262 4.43808 12.6 7.35002 12.6C10.262 12.6 12.6 10.262 12.6 7.35002Z" fill="white"/>
</svg>
