<svg width="23" height="25" viewBox="0 0 23 25" fill="none" xmlns="http://www.w3.org/2000/svg">
<path d="M18.3392 17.2085C17.4103 17.2085 16.5792 17.5699 15.9436 18.1362L7.22919 13.1362C7.2903 12.8591 7.33919 12.582 7.33919 12.2928C7.33919 12.0037 7.2903 11.7266 7.22919 11.4494L15.8459 6.49764C16.5059 7.10005 17.3736 7.47354 18.3392 7.47354C20.3681 7.47354 22.0059 5.85909 22.0059 3.85909C22.0059 1.85909 20.3681 0.244629 18.3392 0.244629C16.3103 0.244629 14.6725 1.85909 14.6725 3.85909C14.6725 4.14824 14.7214 4.42535 14.7825 4.70246L6.16586 9.65427C5.50586 9.05186 4.63808 8.67836 3.67253 8.67836C1.64364 8.67836 0.00585938 10.2928 0.00585938 12.2928C0.00585938 14.2928 1.64364 15.9073 3.67253 15.9073C4.63808 15.9073 5.50586 15.5338 6.16586 14.9314L14.8681 19.9434C14.807 20.1964 14.7703 20.4615 14.7703 20.7266C14.7703 22.6663 16.3714 24.2446 18.3392 24.2446C20.307 24.2446 21.9081 22.6663 21.9081 20.7266C21.9081 18.7868 20.307 17.2085 18.3392 17.2085Z" fill="white"/>
</svg>
