<svg width="66" height="66" viewBox="0 0 66 66" fill="none" xmlns="http://www.w3.org/2000/svg">
<path fill-rule="evenodd" clip-rule="evenodd" d="M33 66C51.2254 66 66 51.2254 66 33C66 14.7746 51.2254 0 33 0C14.7746 0 0 14.7746 0 33C0 51.2254 14.7746 66 33 66Z" fill="black"/>
<path fill-rule="evenodd" clip-rule="evenodd" d="M14 33C14 22.5236 22.5236 14 33 14C43.4773 14 52 22.5236 52 33C52 43.4764 43.4773 52 33 52C22.5236 52 14 43.4764 14 33ZM43.5334 39.0726C43.4707 38.9726 43.0865 38.3869 41.2386 36.7463C40.4197 36.0201 39.9936 35.6508 39.951 35.2415C39.8929 34.6835 40.5482 34.0512 41.8937 32.3383C43.3129 30.5292 43.873 28.8621 43.7391 28.3756C43.6475 28.0432 43.1241 28.0434 42.559 28.0435L42.5264 28.0435C42.181 28.0435 41.1018 28.0508 40.2328 28.0568C39.6471 28.0608 39.1569 28.0641 39.0511 28.0641C38.9092 28.0641 38.8457 28.0634 38.787 28.08C38.7371 28.0942 38.6907 28.121 38.6025 28.1715C38.415 28.2789 38.2944 28.4962 38.2944 28.4962C38.2944 28.4962 37.7103 30.4722 36.976 31.6634C35.4295 34.1747 34.5605 33.983 34.3069 33.8261C33.7951 33.5098 33.8099 32.6389 33.8224 31.9043C33.8243 31.7946 33.8261 31.6879 33.8261 31.5866C33.8261 31.1304 33.836 30.7353 33.8446 30.3928C33.8818 28.9082 33.8942 28.4106 32.9686 28.1971C32.5919 28.1104 32.3135 28.0526 31.3478 28.0435C30.107 28.0319 29.3875 28.0922 28.8588 28.3277C28.4631 28.5135 28.1525 28.839 28.3384 28.863C28.568 28.8927 29.0943 29.0835 29.3693 29.442C29.7262 29.9055 29.6957 30.9455 29.6957 30.9455C29.6957 30.9455 29.9187 33.3676 29.2347 33.7228C28.7663 33.9682 28.1244 33.9103 26.7449 31.632C26.0386 30.4647 25.4843 28.6341 25.4843 28.6341C25.4843 28.6341 25.3818 28.388 25.1976 28.2591C24.9746 28.1021 24.664 28.0435 24.664 28.0435L21.3637 28.0443C21.3637 28.0443 20.8673 28.0179 20.6847 28.2244C20.5236 28.4086 20.6715 28.711 20.6715 28.711C20.6715 28.711 23.1753 34.7166 26.0303 37.698C28.0484 39.807 30.0715 40.4348 31.936 40.4348H33C33.5725 40.4348 33.8261 40.3026 33.8261 40.0077V39.9852C33.826 39.1666 33.826 38.2189 34.5324 38.0077C35.1109 37.8344 35.8561 38.4592 36.6373 39.1141C37.0029 39.4206 37.3763 39.7337 37.7442 39.9747C38.4522 40.4439 39.2807 40.4348 39.2807 40.4348H42.6842C42.6842 40.4348 44.2992 40.2869 43.5334 39.0726Z" fill="white"/>
</svg>
