<svg width="66" height="66" viewBox="0 0 66 66" fill="none" xmlns="http://www.w3.org/2000/svg">
<path fill-rule="evenodd" clip-rule="evenodd" d="M33 66C51.2254 66 66 51.2254 66 33C66 14.7746 51.2254 0 33 0C14.7746 0 0 14.7746 0 33C0 51.2254 14.7746 66 33 66Z" fill="url(#paint0_linear)"/>
<path fill-rule="evenodd" clip-rule="evenodd" d="M14 25.0864C14 18.9748 18.9702 14 25.0802 14H40.9136C47.0252 14 52 18.9702 52 25.0802V40.9136C52 47.0252 47.0298 52 40.9198 52H25.0864C18.9748 52 14 47.0298 14 40.9198V25.0864ZM45.6667 21.9167C45.6667 21.0427 44.9573 20.3333 44.0833 20.3333C43.2093 20.3333 42.5 21.0427 42.5 21.9167C42.5 22.7907 43.2093 23.5 44.0833 23.5C44.9573 23.5 45.6667 22.7907 45.6667 21.9167ZM33 23.5C38.2393 23.5 42.5 27.7607 42.5 33C42.5 38.2393 38.2393 42.5 33 42.5C27.7607 42.5 23.5 38.2393 23.5 33C23.5 27.7607 27.7607 23.5 33 23.5ZM26.6667 33C26.6667 29.5022 29.5022 26.6667 33 26.6667C36.4978 26.6667 39.3333 29.5022 39.3333 33C39.3333 36.4978 36.4978 39.3333 33 39.3333C29.5022 39.3333 26.6667 36.4978 26.6667 33Z" fill="white"/>
<defs>
<linearGradient id="paint0_linear" x1="19.4432" y1="-10.4279" x2="-10.7239" y2="45.775" gradientUnits="userSpaceOnUse">
<stop stop-color="black"/>
<stop offset="0.250378" stop-color="black"/>
<stop offset="0.65684" stop-color="black"/>
<stop offset="1" stop-color="black"/>
</linearGradient>
</defs>
</svg>
