<svg width="24" height="24" viewBox="0 0 24 24" fill="none" xmlns="http://www.w3.org/2000/svg">
<path fill-rule="evenodd" clip-rule="evenodd" d="M0 12C0 5.3724 5.3724 0 12 0C18.6276 0 24 5.3724 24 12C24 18.6276 18.6276 24 12 24C5.3724 24 0 18.6276 0 12ZM10.4484 17.6484L18.8484 9.2484C19.3176 8.7792 19.3176 8.0208 18.8484 7.5516C18.3792 7.0824 17.6208 7.0824 17.1516 7.5516L9.6 15.1032L6.8484 12.3516C6.3792 11.8824 5.6208 11.8824 5.1516 12.3516C4.6824 12.8208 4.6824 13.5792 5.1516 14.0484L8.7516 17.6484C8.9856 17.8824 9.2928 18 9.6 18C9.9072 18 10.2144 17.8824 10.4484 17.6484Z" fill="#61C863"/>
</svg>
