<?xml version="1.0" encoding="UTF-8"?>
<svg width="579px" height="539px" viewBox="0 0 579 539" version="1.1" xmlns="http://www.w3.org/2000/svg" xmlns:xlink="http://www.w3.org/1999/xlink">
    <!-- Generator: Sketch 63.1 (92452) - https://sketch.com -->
    <title>Mask3</title>
    <desc>Created with Sketch.</desc>
    <g id="Page-1" stroke="none" stroke-width="1" fill="none" fill-rule="evenodd">
        <g id="Artboard-Copy-19" transform="translate(-698.000000, -1700.000000)" fill="#C5C5C5">
            <path d="M1028.32158,1689.25422 L1145.28033,1741.55477 C1169.44525,1752.36062 1188.3399,1772.30685 1197.82238,1797.02107 L1250.25553,1933.67775 C1259.10403,1956.73962 1259.10403,1982.26038 1250.25553,2005.32225 L1197.82238,2141.97893 C1188.3399,2166.69315 1169.44525,2186.63938 1145.28033,2197.44523 L1028.32158,2249.74578 C1002.34656,2261.36105 972.653439,2261.36105 946.67842,2249.74578 L829.71967,2197.44523 C805.554747,2186.63938 786.660104,2166.69315 777.177624,2141.97893 L724.744468,2005.32225 C715.895969,1982.26038 715.895969,1956.73962 724.744468,1933.67775 L777.177624,1797.02107 C786.660104,1772.30685 805.554747,1752.36062 829.71967,1741.55477 L946.67842,1689.25422 C972.653439,1677.63895 1002.34656,1677.63895 1028.32158,1689.25422 Z" id="Mask3" transform="translate(987.500000, 1969.500000) rotate(-90.000000) translate(-987.500000, -1969.500000) "></path>
        </g>
    </g>
</svg>